<?xml version="1.0" encoding="UTF-8"?><svg id="a" xmlns="http://www.w3.org/2000/svg" viewBox="0 0 403.49 409.6"><path d="M238.43,207.86c0,20.26-16.42,36.68-36.68,36.68s-36.68-16.42-36.68-36.68,16.42-36.68,36.68-36.68,36.68,16.42,36.68,36.68" style="fill:#c1caf5; fill-rule:evenodd;"/><path d="M122.27,171.18c0,10.13-8.21,18.34-18.34,18.34s-18.34-8.21-18.34-18.34,8.21-18.34,18.34-18.34,18.34,8.21,18.34,18.34" style="fill:#c1caf5; fill-rule:evenodd;"/><path d="M220.08,18.34c0,10.13-8.21,18.34-18.34,18.34s-18.34-8.21-18.34-18.34S191.61,0,201.74,0s18.34,8.21,18.34,18.34" style="fill:#c1caf5; fill-rule:evenodd;"/><path d="M348.47,348.47c0,10.13-8.21,18.34-18.34,18.34s-18.34-8.21-18.34-18.34,8.21-18.34,18.34-18.34,18.34,8.21,18.34,18.34" style="fill:#c1caf5; fill-rule:evenodd;"/><path d="M220.08,311.79c0,10.13-8.21,18.34-18.34,18.34s-18.34-8.21-18.34-18.34,8.21-18.34,18.34-18.34,18.34,8.21,18.34,18.34" style="fill:#c1caf5; fill-rule:evenodd;"/><path d="M0,207.86C0,319.28,90.33,409.6,201.75,409.6c34.74,0,68.24-8.8,97.95-25.34,5.9-3.28,8.02-10.73,4.74-16.63-3.28-5.9-10.73-8.02-16.63-4.74-26.1,14.52-55.51,22.25-86.06,22.25-97.92,0-177.29-79.37-177.29-177.29,0-83.02,57.52-154.4,137.33-172.77,6.58-1.52,10.69-8.08,9.17-14.66-1.51-6.58-8.08-10.69-14.66-9.17C65.45,32.17,0,113.39,0,207.85H0Zm403.49,0c0-94.37-65.31-175.52-156.04-196.54-6.58-1.52-13.15,2.57-14.67,9.15-1.52,6.58,2.57,13.15,9.15,14.67,79.7,18.47,137.11,89.8,137.11,172.72,0,34.97-10.13,68.4-28.87,97.01-3.7,5.65-2.12,13.23,3.53,16.93,5.65,3.7,13.23,2.12,16.93-3.53,21.33-32.56,32.87-70.65,32.87-110.41h0Z" style="fill:#c1caf5; fill-rule:evenodd;"/><path d="M150.76,312.25c6.07,2.97,13.39,.46,16.36-5.61,2.97-6.07,.45-13.39-5.61-16.36-27.89-13.65-47.24-40.63-50.84-71.73-.78-6.71-6.85-11.52-13.55-10.74-6.71,.78-11.51,6.85-10.74,13.55,4.57,39.43,29.07,73.6,64.39,90.89h0Zm167.15-104.39c0-64.15-52-116.15-116.15-116.15-29.43,0-57.18,11.01-78.45,30.49-4.98,4.56-5.32,12.3-.75,17.27,4.56,4.98,12.3,5.32,17.27,.75,16.8-15.39,38.67-24.07,61.93-24.07,50.65,0,91.71,41.06,91.71,91.71,0,35.29-20.11,66.97-51.22,82.31-6.06,2.99-8.55,10.32-5.56,16.37,2.99,6.05,10.31,8.55,16.37,5.56,39.38-19.41,64.86-59.55,64.86-104.24h0Z" style="fill:#c1caf5; fill-rule:evenodd;"/></svg>