<?xml version="1.0" encoding="UTF-8"?><svg id="a" xmlns="http://www.w3.org/2000/svg" viewBox="0 0 512 512"><circle cx="256" cy="256" r="256" style="fill:#272935;"/><g><path d="M290.18,258.85c0,18.88-15.3,34.18-34.18,34.18s-34.18-15.3-34.18-34.18,15.3-34.18,34.18-34.18,34.18,15.3,34.18,34.18" style="fill:#c1caf5; fill-rule:evenodd;"/><path d="M181.94,224.67c0,9.44-7.65,17.09-17.09,17.09s-17.09-7.65-17.09-17.09,7.65-17.09,17.09-17.09,17.09,7.65,17.09,17.09" style="fill:#c1caf5; fill-rule:evenodd;"/><path d="M273.09,82.24c0,9.44-7.65,17.09-17.09,17.09s-17.09-7.65-17.09-17.09,7.65-17.09,17.09-17.09,17.09,7.65,17.09,17.09" style="fill:#c1caf5; fill-rule:evenodd;"/><path d="M392.73,389.88c0,9.44-7.65,17.09-17.09,17.09s-17.09-7.65-17.09-17.09,7.65-17.09,17.09-17.09,17.09,7.65,17.09,17.09" style="fill:#c1caf5; fill-rule:evenodd;"/><path d="M273.09,355.7c0,9.44-7.65,17.09-17.09,17.09s-17.09-7.65-17.09-17.09,7.65-17.09,17.09-17.09,17.09,7.65,17.09,17.09" style="fill:#c1caf5; fill-rule:evenodd;"/><path d="M68,258.85c0,103.83,84.17,188,188,188,32.38,0,63.59-8.2,91.28-23.61,5.5-3.06,7.48-9.99,4.42-15.5-3.06-5.5-10-7.48-15.5-4.42-24.32,13.53-51.73,20.74-80.2,20.74-91.24,0-165.21-73.97-165.21-165.21,0-77.36,53.6-143.88,127.98-161,6.13-1.41,9.96-7.53,8.55-13.66-1.41-6.13-7.53-9.96-13.66-8.55-84.67,19.49-145.66,95.18-145.66,183.2h0Zm375.99,0c0-87.94-60.86-163.56-145.4-183.15-6.13-1.42-12.25,2.4-13.67,8.53-1.42,6.13,2.4,12.25,8.53,13.67,74.27,17.21,127.76,83.68,127.76,160.95,0,32.59-9.44,63.74-26.9,90.4-3.45,5.26-1.98,12.33,3.29,15.78,5.26,3.45,12.32,1.98,15.78-3.29,19.88-30.34,30.63-65.83,30.63-102.89h0Z" style="fill:#c1caf5; fill-rule:evenodd;"/><path d="M208.49,356.13c5.65,2.77,12.48,.43,15.24-5.23,2.76-5.65,.42-12.48-5.23-15.24-25.99-12.72-44.02-37.87-47.38-66.85-.72-6.25-6.38-10.73-12.63-10.01-6.25,.72-10.73,6.38-10.01,12.63,4.26,36.75,27.09,68.59,60,84.69h0Zm155.76-97.28c0-59.78-48.46-108.24-108.24-108.24-27.43,0-53.29,10.26-73.11,28.42-4.64,4.25-4.95,11.46-.7,16.1,4.25,4.64,11.46,4.95,16.1,.7,15.66-14.35,36.04-22.43,57.71-22.43,47.19,0,85.46,38.26,85.46,85.46,0,32.89-18.74,62.41-47.73,76.7-5.64,2.78-7.96,9.61-5.18,15.26,2.78,5.64,9.61,7.96,15.26,5.18,36.7-18.09,60.44-55.49,60.44-97.14h0Z" style="fill:#c1caf5; fill-rule:evenodd;"/></g></svg>