<svg xmlns="http://www.w3.org/2000/svg" viewBox="0 0 24 24" height="24" width="24">
  <path d="M14.18,12.18c0,1.19-.98,2.15-2.18,2.15s-2.18-.96-2.18-2.15,.98-2.15,2.18-2.15,2.18,.96,2.18,2.15" fill="currentColor" fill-rule="evenodd"/>
  <path d="M7.27,10.03c0,.59-.49,1.07-1.09,1.07s-1.09-.48-1.09-1.07,.49-1.07,1.09-1.07,1.09,.48,1.09,1.07" fill="currentColor" fill-rule="evenodd"/>
  <path d="M13.09,1.07c0,.59-.49,1.07-1.09,1.07s-1.09-.48-1.09-1.07,.49-1.07,1.09-1.07,1.09,.48,1.09,1.07" fill="currentColor" fill-rule="evenodd"/>
  <path d="M20.73,20.42c0,.59-.49,1.07-1.09,1.07s-1.09-.48-1.09-1.07,.49-1.07,1.09-1.07,1.09,.48,1.09,1.07" fill="currentColor" fill-rule="evenodd"/>
  <path d="M13.09,18.27c0,.59-.49,1.07-1.09,1.07s-1.09-.48-1.09-1.07,.49-1.07,1.09-1.07,1.09,.48,1.09,1.07" fill="currentColor" fill-rule="evenodd"/>
  <path d="M0,12.18C0,18.71,5.37,24,12,24c2.07,0,4.06-.52,5.83-1.48,.35-.19,.48-.63,.28-.97-.2-.35-.64-.47-.99-.28-1.55,.85-3.3,1.3-5.12,1.3-5.82,0-10.55-4.65-10.55-10.39C1.45,7.31,4.88,3.13,9.62,2.06c.39-.09,.64-.47,.55-.86-.09-.39-.48-.63-.87-.54C3.89,1.89,0,6.64,0,12.18H0Zm24,0c0-5.53-3.88-10.28-9.28-11.52-.39-.09-.78,.15-.87,.54-.09,.39,.15,.77,.54,.86,4.74,1.08,8.16,5.26,8.16,10.12,0,2.05-.6,4.01-1.72,5.68-.22,.33-.13,.78,.21,.99,.34,.22,.79,.12,1.01-.21,1.27-1.91,1.96-4.14,1.96-6.47h0Z" fill="#c1caf5" fill-rule="evenodd"/>
  <path d="M8.97,18.3c.36,.17,.8,.03,.97-.33,.18-.36,.03-.78-.33-.96-1.66-.8-2.81-2.38-3.02-4.2-.05-.39-.41-.67-.81-.63-.4,.05-.68,.4-.64,.79,.27,2.31,1.73,4.31,3.83,5.33h0Zm9.94-6.12c0-3.76-3.09-6.81-6.91-6.81-1.75,0-3.4,.65-4.67,1.79-.3,.27-.32,.72-.04,1.01,.27,.29,.73,.31,1.03,.04,1-.9,2.3-1.41,3.68-1.41,3.01,0,5.45,2.41,5.45,5.37,0,2.07-1.2,3.92-3.05,4.82-.36,.17-.51,.6-.33,.96,.18,.35,.61,.5,.97,.33,2.34-1.14,3.86-3.49,3.86-6.11h0Z" fill="#c1caf5" fill-rule="evenodd"/>
</svg>